<?xml version="1.0" encoding="UTF-8" standalone="no"?>
<svg
   xmlns:dc="http://purl.org/dc/elements/1.1/"
   xmlns:cc="http://creativecommons.org/ns#"
   xmlns:rdf="http://www.w3.org/1999/02/22-rdf-syntax-ns#"
   xmlns:svg="http://www.w3.org/2000/svg"
   xmlns="http://www.w3.org/2000/svg"
   xmlns:sodipodi="http://sodipodi.sourceforge.net/DTD/sodipodi-0.dtd"
   xmlns:inkscape="http://www.inkscape.org/namespaces/inkscape"
   width="100px"
   height="12px"
   viewBox="0 0 100 12"
   version="1.1"
   id="svg840"
   sodipodi:docname="logo-cloudera-white.svg"
   inkscape:version="1.0.2 (e86c8708, 2021-01-15)">
  <metadata
     id="metadata846">
    <rdf:RDF>
      <cc:Work
         rdf:about="">
        <dc:format>image/svg+xml</dc:format>
        <dc:type
           rdf:resource="http://purl.org/dc/dcmitype/StillImage" />
      </cc:Work>
    </rdf:RDF>
  </metadata>
  <defs
     id="defs844" />
  <sodipodi:namedview
     pagecolor="#ffffff"
     bordercolor="#666666"
     borderopacity="1"
     objecttolerance="10"
     gridtolerance="10"
     guidetolerance="10"
     inkscape:pageopacity="0"
     inkscape:pageshadow="2"
     inkscape:window-width="3840"
     inkscape:window-height="1463"
     id="namedview842"
     showgrid="false"
     inkscape:zoom="21.699064"
     inkscape:cx="40.663115"
     inkscape:cy="3.3173909"
     inkscape:window-x="1792"
     inkscape:window-y="25"
     inkscape:window-maximized="1"
     inkscape:current-layer="svg840" />
  <title
     id="title833">logo-cloudera-white</title>
  <path
     d="m 45.137243,6.7250849 c 0,1.818 -1.059651,2.915 -2.549659,2.915 -1.490007,0 -2.549658,-1.097 -2.549658,-2.915 V 0.30808494 H 37.339064 V 6.6220849 c 0,3.325 2.119302,5.4240001 5.24852,5.4240001 3.128204,0 5.247506,-2.0990001 5.247506,-5.4240001 V 0.30808494 h -2.697847 z m 50.378084,0.587 -1.620941,-4.021 -1.620941,4.021 z m 4.532963,4.4720001 H 97.318967 L 96.37401,9.4420849 H 91.414762 L 90.47082,11.784085 H 87.741508 L 92.659141,0.30808494 h 2.416695 z M 84.043894,4.2670849 c 0,-0.507 -0.206043,-0.981 -0.51866,-1.252 -0.353217,-0.306 -0.860713,-0.465 -1.566132,-0.465 h -2.579093 v 3.446 h 2.587213 c 0.692224,0 1.184495,-0.154 1.533652,-0.45 0.328857,-0.279 0.54302,-0.758 0.54302,-1.279 z m -0.265928,3.656 3.323082,3.8610001 H 83.95965 L 80.865956,8.1610849 H 79.380009 V 11.784085 H 76.735956 V 0.30808494 h 5.371335 c 1.497112,0 2.596348,0.36 3.384996,1.02399996 0.788648,0.664 1.247425,1.684 1.247425,2.898 0,1.52 -0.655685,3.099 -2.961746,3.693 z M 15.936955,0.30808494 H 13.239108 V 11.784085 h 8.162561 V 9.4490849 H 15.936955 Z M 6.2843869,9.6220849 c -1.9924282,0 -3.4367609,-1.549 -3.4367609,-3.577 0,-2.028 1.4443327,-3.574 3.4367609,-3.574 0.9591669,0 1.7508602,0.336 2.4430844,0.982 l 1.7386797,-1.713 C 9.4156354,0.67208494 7.9499878,0.04608494 6.2549522,0.04608494 c -3.5047654,0 -6.20667264,2.63599996 -6.20667264,5.99999996 0,3.365 2.70190724,6.0000001 6.20667264,6.0000001 1.77116,0 3.3220669,-0.705 4.3786728,-1.889 L 8.9040798,8.4530849 c -0.6983141,0.76 -1.5316221,1.169 -2.6196929,1.169 z m 53.1733701,-3.576 c 0,-2.072 -1.519442,-3.444 -3.781858,-3.444 h -1.77928 v 6.888 h 1.77928 c 2.262416,0 3.781858,-1.372 3.781858,-3.444 z m 2.800361,0 c 0,3.432 -2.568943,5.7380001 -6.391401,5.7380001 H 51.198772 V 0.30808494 h 4.554266 c 3.823473,0 6.50508,2.30599996 6.50508,5.73799996 z m -30.365498,0.018 c 0,-2.093 -1.390538,-3.611 -3.352517,-3.611 -1.959948,0 -3.351501,1.518 -3.351501,3.611 0,2.072 1.391553,3.576 3.351501,3.576 1.961979,0 3.352517,-1.504 3.352517,-3.576 z m 2.799346,-0.001 c 0,3.355 -2.578078,5.9830001 -6.151863,5.9830001 -3.57277,0 -6.150848,-2.6280001 -6.150848,-5.9830001 0,-3.374 2.578078,-6.01699996 6.150848,-6.01699996 3.573785,0 6.151863,2.64299996 6.151863,6.01699996 z M 63.484228,11.784085 H 73.575273 V 9.4120849 H 65.080809 C 64.702218,10.311085 64.160212,11.104085 63.484228,11.784085 Z M 72.14109,7.1830849 v -2.349 h -6.508125 c 0.05684,0.402 0.09541,0.812 0.09541,1.239 0,0.381 -0.02943,0.749 -0.07308,1.11 z M 63.355324,0.30808494 H 73.522493 V 2.6800849 H 65.03615 c -0.401937,-0.901 -0.974392,-1.69299996 -1.680826,-2.37199996 z"
     id="cloudera"
     fill="#FFFFFF"
     style="fill:#ffffff;fill-opacity:1;fill-rule:evenodd;stroke:none;stroke-width:1;stroke-opacity:1" />
</svg>
